<svg width="15" height="15" viewBox="0 0 15 15" fill="none" xmlns="http://www.w3.org/2000/svg">
<path fill-rule="evenodd" clip-rule="evenodd" d="M7.5 0C3.35938 0 0 3.35938 0 7.5C0 11.6406 3.35938 15 7.5 15C11.6325 15 15 11.6406 15 7.5C15 3.35938 11.6325 0 7.5 0ZM12.4538 3.45688C13.3772 4.58146 13.8882 5.98806 13.9019 7.44313C13.6906 7.4025 11.5756 6.97125 9.44438 7.24C9.395 7.13375 9.35437 7.02 9.30562 6.90625C9.17307 6.59338 9.03219 6.2841 8.88313 5.97875C11.2419 5.01875 12.3156 3.63625 12.4538 3.45688ZM7.5 1.10688C9.12687 1.10688 10.6156 1.71625 11.7463 2.71688C11.6325 2.87937 10.6644 4.17313 8.38688 5.02688C7.33687 3.09938 6.17438 1.52062 5.995 1.27688C6.48833 1.16168 6.99341 1.10442 7.5 1.10625V1.10688ZM4.775 1.70812C4.94562 1.93625 6.08437 3.5225 7.15 5.40937C4.15625 6.20687 1.5125 6.19062 1.22812 6.19062C1.64313 4.20562 2.98563 2.55437 4.775 1.70812ZM1.09 7.50812V7.31313C1.36687 7.32125 4.47375 7.36188 7.67125 6.40188C7.85813 6.76 8.02875 7.12563 8.19125 7.49188C8.11 7.51625 8.02063 7.54063 7.93937 7.565C4.63688 8.63062 2.87937 11.5425 2.73313 11.7869C1.67526 10.6128 1.08988 9.08847 1.09 7.50812ZM7.5 13.91C6.07626 13.9122 4.6929 13.4369 3.57125 12.56C3.685 12.3238 4.98625 9.81812 8.59813 8.5575C8.61438 8.54938 8.62313 8.54938 8.63875 8.54125C9.54187 10.8756 9.9075 12.8363 10.0056 13.3975C9.2325 13.7313 8.38688 13.91 7.5 13.91ZM11.0713 12.8119C11.0063 12.4213 10.6644 10.5506 9.82625 8.24813C11.8356 7.93125 13.5925 8.45188 13.8125 8.525C13.5356 10.3063 12.5106 11.8438 11.0713 12.8119Z" fill="white"/>
</svg>
