<svg width="16" height="14" viewBox="0 0 16 14" fill="none" xmlns="http://www.w3.org/2000/svg">
<path d="M14.1811 0.987254C13.7756 0.980871 12.8337 1.12735 11.261 2.24742C10.4038 2.01947 9.49186 1.90698 8.5783 1.90698C7.57313 1.90698 6.55735 2.0428 5.61007 2.31933C3.35214 0.680193 2.35551 1.0161 2.35551 1.0161C1.70487 2.74748 2.10693 4.02935 2.22914 4.3477C1.46441 5.22596 0.997559 6.34746 0.997559 7.72197C0.997559 8.75966 1.10855 9.69038 1.37971 10.4995C1.39475 10.5619 1.38987 10.548 1.41521 10.6014C1.47495 10.7689 1.54137 10.9315 1.61603 11.0885C1.64161 11.145 1.6649 11.1868 1.6649 11.1868C2.42716 12.6988 3.92983 13.6755 6.60343 13.9822L10.6471 13.9871C13.4984 13.6862 14.8666 12.7066 15.4971 11.1844L15.5372 11.0853C15.5969 10.9315 15.649 10.7715 15.7914 10.233C15.9339 9.69441 15.9976 8.76173 15.9976 7.72156C15.9976 6.22974 15.471 5.03605 14.616 4.12791C14.7654 3.61467 14.965 2.47486 14.4167 1.01568C14.4167 1.01568 14.3398 0.98975 14.1811 0.987241L14.1811 0.987254ZM10.9945 6.46179C11.6529 6.46027 12.2169 6.58056 12.6403 7.05328V7.05368C13.1701 7.64571 13.4802 8.36051 13.4802 9.1308C13.4802 12.7274 11.3064 12.8252 8.62526 12.8252C5.94362 12.8252 3.77034 12.3268 3.77034 9.1308C3.77034 8.3656 4.07587 7.65509 4.59916 7.06546C5.47205 6.08279 6.94923 6.60315 8.62527 6.60315C9.48561 6.60301 10.2936 6.4634 10.9945 6.46178L10.9945 6.46179ZM6.00022 7.52087C5.44233 7.52087 4.99006 8.32351 4.99006 9.31404C4.99006 10.3047 5.44231 11.1076 6.00022 11.1076C6.55811 11.1076 7.01038 10.3047 7.01038 9.31404C7.01038 8.32365 6.55813 7.52159 6.00022 7.52087ZM11.4202 7.52087C10.8623 7.52087 10.41 8.32351 10.41 9.31404C10.41 10.3047 10.8622 11.1076 11.4202 11.1076C11.978 11.1076 12.4303 10.3047 12.4303 9.31404C12.4303 8.32365 11.9781 7.52159 11.4202 7.52087Z" fill="white"/>
</svg>
