<svg width="14" height="14" viewBox="0 0 14 14" fill="none" xmlns="http://www.w3.org/2000/svg">
<path fill-rule="evenodd" clip-rule="evenodd" d="M5.28598 4.97925H7.76198V6.21259C8.11865 5.50325 9.03331 4.86592 10.4073 4.86592C13.0413 4.86592 13.6666 6.27792 13.6666 8.86859V13.6666H11V9.45859C11 7.98325 10.6433 7.15125 9.73531 7.15125C8.47598 7.15125 7.95265 8.04792 7.95265 9.45792V13.6666H5.28598V4.97925ZM0.713313 13.5533H3.37998V4.86592H0.713313V13.5533ZM3.76198 2.03325C3.76208 2.25677 3.71775 2.47808 3.63157 2.68431C3.54539 2.89054 3.41908 3.07759 3.25998 3.23459C2.93758 3.555 2.50119 3.73435 2.04665 3.73325C1.59291 3.73295 1.15752 3.55405 0.834646 3.23525C0.676121 3.07773 0.550237 2.89047 0.464209 2.68421C0.378181 2.47795 0.333699 2.25673 0.333313 2.03325C0.333313 1.58192 0.513313 1.14992 0.835313 0.831252C1.1579 0.512024 1.59347 0.333052 2.04731 0.333252C2.50198 0.333252 2.93798 0.512585 3.25998 0.831252C3.58131 1.14992 3.76198 1.58192 3.76198 2.03325Z" fill="white"/>
</svg>
